<?xml version="1.0" encoding="UTF-8"?>
<svg id="Layer_2" data-name="Layer 2" xmlns="http://www.w3.org/2000/svg" viewBox="0 0 75 30">
  <defs>
    <style>
      .cls-1 {
        fill: #4b4b4b;
      }

      .cls-2 {
        fill: #e6e6e6;
      }

      .cls-3 {
        fill: none;
      }
    </style>
  </defs>
  <g id="Background">
    <rect class="cls-1" width="75" height="30"/>
    <g>
      <path class="cls-3" d="m24.88,15.04c-.58.08-1.03.25-1.37.51-.33.26-.5.67-.5,1.23,0,.43.12.74.37.92.25.18.52.27.83.27s.65-.07,1.02-.2c.38-.13.7-.34.97-.62l.49-2.22c-.66,0-1.27.03-1.81.11Z"/>
      <path class="cls-3" d="m41.92,11.75c-.4,0-.77.13-1.1.38s-.61.58-.84.98-.41.81-.53,1.25c0,.02,0,.04-.01.06.27.02.49.03.62.04.16,0,.29.01.4.01.8,0,1.42-.14,1.86-.43.44-.29.67-.75.67-1.38,0-.29-.1-.51-.3-.67-.2-.16-.46-.24-.76-.24Z"/>
      <path class="cls-3" d="m49.03,15.04c-.58.08-1.03.25-1.37.51-.33.26-.5.67-.5,1.23,0,.43.12.74.37.92.25.18.52.27.83.27s.65-.07,1.02-.2c.38-.13.7-.34.97-.62l.49-2.22c-.66,0-1.27.03-1.81.11Z"/>
      <path class="cls-2" d="m28.66,17.97c-.14.03-.26.05-.34.05-.29,0-.48-.07-.58-.2-.09-.14-.14-.27-.14-.41,0-.08.01-.2.04-.38s.06-.37.11-.59.08-.41.12-.58l.43-1.88c.04-.15.07-.35.1-.58s.04-.44.04-.6c0-.34-.07-.63-.22-.86-.15-.23-.34-.42-.59-.55-.24-.14-.51-.24-.81-.29-.3-.06-.6-.09-.9-.09-.52,0-.97.04-1.36.12s-.75.18-1.11.29l-.63.19-.06,1.36h.3c.19-.11.43-.25.71-.42.29-.17.6-.33.92-.47s.65-.21.96-.21c.37,0,.68.08.95.25s.4.44.4.82c0,.07,0,.15,0,.25,0,.1-.01.2-.02.3s-.02.19-.04.26l-.11.51c-.1,0-.2-.01-.3-.02-.14-.01-.28-.03-.41-.04s-.25-.02-.36-.03c-.11,0-.22-.01-.31-.01-.39,0-.81.05-1.27.14s-.89.25-1.3.48-.75.52-1.01.9c-.26.37-.39.84-.39,1.39,0,.33.07.65.21.94.14.3.36.54.64.72.29.18.65.27,1.09.27.25,0,.52-.03.81-.09.29-.06.59-.18.91-.37.32-.19.64-.46.97-.83h.08c0,.18.04.37.11.57s.17.36.33.5c.16.14.39.2.69.2.26,0,.58-.03.94-.1s.72-.2,1.08-.41v-.62h-.24c-.17.06-.32.11-.46.14Zm-2.45-.82c-.28.28-.6.49-.97.62-.37.13-.72.2-1.02.2s-.58-.09-.83-.27c-.25-.18-.37-.49-.37-.92,0-.56.17-.97.5-1.23.33-.26.79-.43,1.37-.51.54-.07,1.15-.11,1.81-.11l-.49,2.22Z"/>
      <path class="cls-2" d="m36.06,11c-.24,0-.48.06-.73.17s-.52.3-.81.55-.62.58-.98.99h-.07l.36-1.66-2.75.39v.5l.81.35c.09.04.16.09.2.15.04.06.06.15.05.28,0,.08-.02.18-.03.29-.02.11-.04.23-.06.33l-1.17,5.5h1.69v-.48c0-.17,0-.33,0-.51,0-.17,0-.33,0-.48l.84-3.98c.18-.18.38-.36.58-.54.2-.18.42-.33.65-.45.23-.12.48-.18.74-.18.11,0,.24.02.4.07.16.05.25.13.29.24l.17.54h.89l.08-1.76c-.17-.14-.35-.23-.54-.27-.19-.04-.4-.06-.63-.06Z"/>
      <path class="cls-2" d="m43.24,11.16c-.35-.11-.7-.16-1.05-.16-.66,0-1.26.14-1.8.42-.54.28-1,.66-1.38,1.13-.38.47-.67.99-.88,1.57-.21.57-.31,1.15-.31,1.74,0,.63.1,1.16.31,1.57.21.41.46.73.77.96.31.23.63.39.95.48.32.09.6.14.83.14.45,0,.86-.05,1.23-.14.37-.09.72-.23,1.07-.4.34-.17.71-.37,1.09-.6l.04-.91h-.28c-.51.32-.95.57-1.32.75s-.75.26-1.14.26c-.51,0-.92-.11-1.23-.32-.31-.21-.54-.5-.67-.86-.14-.36-.21-.77-.21-1.23,0-.15.02-.3.04-.46.07,0,.15.02.26.03.14.02.29.03.46.04.16.01.32.02.46.02.46,0,.93-.04,1.4-.13.47-.09.9-.23,1.29-.42.39-.19.71-.45.95-.76s.36-.7.36-1.16c0-.42-.12-.76-.35-1.01-.24-.25-.53-.43-.88-.54Zm-.93,2.88c-.44.29-1.06.43-1.86.43-.1,0-.24,0-.4-.01-.13,0-.35-.02-.62-.04,0-.02,0-.04.01-.06.12-.43.3-.85.53-1.25s.51-.72.84-.98.69-.38,1.1-.38c.31,0,.56.08.76.24.2.16.3.38.3.67,0,.64-.22,1.1-.67,1.38Z"/>
      <path class="cls-2" d="m53.27,17.83c-.17.06-.32.11-.46.14s-.26.05-.34.05c-.29,0-.48-.07-.58-.2-.09-.14-.14-.27-.14-.41,0-.08.01-.2.04-.38s.06-.37.11-.59.08-.41.12-.58l.43-1.88c.04-.15.07-.35.1-.58s.04-.44.04-.6c0-.34-.07-.63-.22-.86-.15-.23-.34-.42-.59-.55-.24-.14-.51-.24-.81-.29-.3-.06-.6-.09-.9-.09-.52,0-.97.04-1.36.12s-.75.18-1.11.29l-.63.19-.06,1.36h.3c.19-.11.43-.25.71-.42.29-.17.6-.33.92-.47s.65-.21.96-.21c.37,0,.68.08.95.25s.4.44.4.82c0,.07,0,.15,0,.25,0,.1-.01.2-.02.3s-.02.19-.04.26l-.11.51c-.1,0-.2-.01-.3-.02-.14-.01-.28-.03-.41-.04s-.25-.02-.36-.03c-.11,0-.22-.01-.31-.01-.39,0-.81.05-1.27.14s-.89.25-1.3.48-.75.52-1.01.9c-.26.37-.39.84-.39,1.39,0,.33.07.65.21.94.14.3.36.54.64.72.29.18.65.27,1.09.27.25,0,.52-.03.81-.09.29-.06.59-.18.91-.37.32-.19.64-.46.97-.83h.08c0,.18.04.37.11.57s.17.36.33.5c.16.14.39.2.69.2.26,0,.58-.03.94-.1s.72-.2,1.08-.41v-.62h-.24Zm-2.92-.68c-.28.28-.6.49-.97.62-.37.13-.72.2-1.02.2s-.58-.09-.83-.27c-.25-.18-.37-.49-.37-.92,0-.56.17-.97.5-1.23.33-.26.79-.43,1.37-.51.54-.07,1.15-.11,1.81-.11l-.49,2.22Z"/>
    </g>
  </g>
</svg>