<?xml version="1.0" encoding="UTF-8"?>
<svg id="Layer_2" data-name="Layer 2" xmlns="http://www.w3.org/2000/svg" viewBox="0 0 75 30">
  <defs>
    <style>
      .cls-1 {
        fill: #4b4b4b;
      }

      .cls-2 {
        fill: #e6e6e6;
      }

      .cls-3 {
        fill: none;
      }
    </style>
  </defs>
  <g id="Background">
    <rect class="cls-1" width="75" height="30"/>
    <g>
      <path class="cls-3" d="m38.87,13.68c-.2-.05-.41-.09-.63-.11-.22-.02-.43-.04-.63-.04-.47,0-.88.11-1.22.33-.35.22-.63.51-.86.88s-.4.78-.51,1.24c-.11.46-.17.92-.17,1.39,0,.43.06.8.18,1.13.12.33.32.59.58.78.26.19.61.28,1.03.28.23,0,.5-.07.8-.2s.57-.33.8-.61l1.08-4.9c-.14-.07-.29-.13-.46-.17Z"/>
      <path class="cls-2" d="m40.71,19.56c-.14.03-.25.05-.34.05-.29,0-.47-.07-.57-.2-.09-.14-.14-.27-.14-.41,0-.08.01-.2.04-.37.03-.17.07-.37.11-.59.04-.22.09-.43.13-.63l1.74-7.98-2.88.13v.5l.96.41c.09.04.16.09.2.13.04.05.04.13.02.24l-.53,2.48h0c-.25-.28-.55-.49-.91-.59-.39-.11-.72-.16-.99-.16-.64,0-1.22.15-1.74.44-.52.29-.97.68-1.34,1.17-.37.49-.66,1.04-.86,1.64-.2.61-.3,1.22-.3,1.84,0,.56.09,1.06.28,1.5.19.44.46.78.82,1.03s.8.38,1.32.38c.2,0,.42-.02.67-.08.24-.05.51-.17.81-.35s.62-.47.97-.87h.08c0,.18.05.36.11.56.06.2.18.36.34.5s.38.21.67.21c.26,0,.58-.04.94-.1s.72-.21,1.09-.41v-.62h-.24c-.16.06-.31.11-.45.14Zm-2.46-.8c-.24.28-.5.48-.8.61s-.56.2-.8.2c-.42,0-.77-.09-1.03-.28-.27-.19-.46-.45-.58-.78-.12-.33-.18-.71-.18-1.13,0-.47.06-.94.17-1.39.11-.46.28-.87.51-1.24s.51-.66.86-.88c.35-.22.75-.33,1.22-.33.2,0,.41.01.63.04.22.02.42.06.63.11.17.04.32.11.46.17l-1.08,4.9Z"/>
    </g>
  </g>
</svg>