<?xml version="1.0" encoding="UTF-8"?>
<svg id="Layer_2" data-name="Layer 2" xmlns="http://www.w3.org/2000/svg" viewBox="0 0 75 30">
  <defs>
    <style>
      .cls-1 {
        fill: #4b4b4b;
      }

      .cls-2 {
        fill: #e6e6e6;
      }
    </style>
  </defs>
  <g id="Background">
    <rect class="cls-1" width="75" height="30"/>
    <g>
      <path class="cls-2" d="m35.83,17.17h-.29c-.09.04-.23.09-.41.14s-.38.1-.57.14c-.2.04-.36.06-.49.06-.17,0-.37-.03-.6-.1-.23-.06-.43-.17-.59-.32s-.25-.33-.25-.56c0-.06.02-.19.05-.37.04-.18.08-.37.12-.57.04-.2.08-.37.1-.5l1.07-4.99h3.25l.04-1.01h-3.08l.61-2.83-1.59.28-.35,1.31c-.11.4-.25.69-.43.88-.18.19-.41.32-.69.4-.28.07-.63.13-1.05.18v.79h1.53l-1.16,5.45c-.04.16-.08.35-.13.58-.05.23-.09.45-.13.66-.04.21-.06.37-.06.49,0,.47.21.84.62,1.12.41.28.91.41,1.51.41.34,0,.72-.06,1.14-.19.42-.13.8-.27,1.14-.42s.57-.26.68-.33v-.7Z"/>
      <path class="cls-2" d="m43.99,11.01c-.12-.03-.25-.05-.37-.07-.12-.02-.23-.02-.33-.02-.28,0-.56.03-.82.1-.27.07-.52.18-.76.35-.27.18-.51.43-.75.74-.23.32-.44.71-.63,1.2-.11.28-.21.61-.3.96h-1.32l-.02.7h1.18s-.01.06-.02.09l-.99,5.02c-.09.44-.18.82-.28,1.15-.1.33-.19.6-.28.81s-.16.34-.22.41c-.1.1-.22.18-.36.22-.14.05-.3.07-.48.07s-.35-.02-.49-.05c-.14-.04-.28-.08-.4-.13-.12-.05-.24-.11-.36-.16h-.24l-.09,1.16c.1.03.2.06.31.08s.22.05.32.06c.11.01.21.02.31.02.38,0,.75-.08,1.11-.25.36-.16.7-.4,1.02-.7.31-.3.59-.67.81-1.11.23-.44.4-.92.5-1.46l1.03-5.24h1.84l.04-.7h-1.73c.04-.2.08-.4.12-.58.05-.22.09-.42.13-.6.04-.17.08-.32.12-.45.04-.13.07-.23.11-.32.05-.12.15-.23.29-.31.15-.08.37-.12.68-.12.18,0,.35.02.51.06.16.04.3.09.44.14.13.06.26.11.37.16h.23l.09-1.14c-.1-.03-.21-.06-.33-.09Z"/>
    </g>
  </g>
</svg>