<?xml version="1.0" encoding="UTF-8"?>
<svg id="Layer_2" data-name="Layer 2" xmlns="http://www.w3.org/2000/svg" viewBox="0 0 75 30">
  <defs>
    <style>
      .cls-1 {
        fill: #4b4b4b;
      }

      .cls-2 {
        fill: #e6e6e6;
      }
    </style>
  </defs>
  <g id="Background">
    <rect class="cls-1" width="75" height="30"/>
    <path class="cls-2" d="m41.35,19.43c-.16.06-.31.11-.44.14s-.24.05-.33.05c-.28,0-.48-.07-.57-.2-.1-.13-.15-.27-.15-.41,0-.07.01-.2.05-.39.03-.19.07-.4.12-.62l.56-2.4c.05-.22.1-.43.14-.64.04-.21.06-.41.06-.6,0-.42-.09-.76-.26-1.02-.17-.26-.4-.45-.68-.58-.28-.12-.6-.18-.95-.18-.26,0-.53.03-.81.09-.28.06-.58.19-.9.38-.29.17-.6.45-.93.79l.12-.53.86-3.88-2.74.13v.51l.82.4c.09.04.15.09.19.14.04.05.05.13.03.24l-2.13,9.59h1.7v-.71c0-.25,0-.5.01-.75l1.02-4.57c.26-.26.55-.46.88-.57.36-.12.7-.19,1.02-.19.47,0,.8.09.99.27.19.18.29.44.29.78,0,.12-.01.27-.04.45-.03.17-.06.36-.11.55l-.64,2.73c-.05.2-.08.4-.11.59s-.04.34-.04.46c0,.14.04.3.12.46.08.17.21.31.38.43s.4.18.68.18c.16,0,.35-.01.58-.04.22-.03.46-.08.71-.15s.5-.18.74-.32v-.62h-.24Z"/>
  </g>
</svg>