<?xml version="1.0" encoding="UTF-8"?>
<svg id="Layer_2" data-name="Layer 2" xmlns="http://www.w3.org/2000/svg" viewBox="0 0 20 20">
  <defs>
    <style>
      .cls-1 {
        fill: #e6e6e6;
      }
    </style>
  </defs>
  <g id="Layer_1-2" data-name="Layer 1">
    <path class="cls-1" d="m16,0H4C1.79,0,0,1.79,0,4v12c0,2.21,1.79,4,4,4h12c2.21,0,4-1.79,4-4V4c0-2.21-1.79-4-4-4Zm-3.93,13.65s-.03.04-.07.09c-.39.49-.76.89-1.15,1.22-.45.37-.91.65-1.39.83-.17.06-.33.11-.51.15-.3.07-.66.07-1.02.02-.22-.03-.41-.17-.5-.37-.08-.17-.1-.38-.07-.63.02-.15.04-.29.09-.51q.01-.06.03-.12c.09-.39.21-.76.42-1.32.03-.07.05-.13.1-.26v-.03c.19-.49.37-.95.66-1.71q.07-.17.13-.35v-.03c.23-.57.34-.85.46-1.18.01-.03.02-.06.05-.13.07-.16.1-.24.11-.34.06-.36-.24-.64-.57-.45-.39.22-.63.47-1.14,1.06-.15.18-.23.26-.32.36t-.03.03c-.1.11-.14.13-.22.08-.1-.07-.1-.16,0-.29.69-.95,1.38-1.6,2.19-1.98.46-.21.96-.35,1.39-.36.39,0,.7.1.92.33.2.2.28.5.25.81-.05.41-.16.81-.35,1.35-.16.43-.32.88-.52,1.44-.07.19-.12.34-.25.69-.3.8-.43,1.17-.59,1.62-.07.21-.12.42-.15.63-.03.31.22.49.51.35.18-.09.34-.2.47-.33.26-.26.43-.44.61-.63.11-.11.2-.22.29-.32.02-.03.05-.06.09-.11.06-.07.1-.11.14-.13.08-.04.17.08.15.19-.02.1-.08.2-.2.35Zm-1.1-7.22c-.45-.21-.67-.73-.56-1.32.16-.82,1.08-1.33,1.85-1.03.44.17.68.55.68,1.1,0,.99-1.07,1.67-1.97,1.25Z"/>
  </g>
</svg>