<?xml version="1.0" encoding="UTF-8"?>
<svg id="Layer_2" data-name="Layer 2" xmlns="http://www.w3.org/2000/svg" viewBox="0 0 20 20">
  <defs>
    <style>
      .cls-1 {
        fill: #e6e6e6;
      }
    </style>
  </defs>
  <g id="Layer_1-2" data-name="Layer 1">
    <g>
      <path class="cls-1" d="m16,1.1c1.6,0,2.9,1.3,2.9,2.9v12c0,1.6-1.3,2.9-2.9,2.9H4c-1.6,0-2.9-1.3-2.9-2.9V4c0-1.6,1.3-2.9,2.9-2.9h12m0-1.1H4C1.79,0,0,1.79,0,4v12c0,2.21,1.79,4,4,4h12c2.21,0,4-1.79,4-4V4c0-2.21-1.79-4-4-4h0Z"/>
      <path class="cls-1" d="m9.33,7.79c-.81.38-1.5,1.03-2.19,1.98-.1.14-.1.22,0,.29.07.05.11.03.22-.08t.03-.03c.09-.1.16-.18.32-.36.51-.59.76-.83,1.14-1.06.33-.19.63.09.57.45-.02.1-.04.18-.11.34-.03.06-.04.09-.05.13-.13.33-.23.61-.45,1.18v.03q-.08.17-.14.35c-.29.75-.47,1.22-.65,1.71v.03c-.06.13-.08.19-.11.26-.21.56-.33.93-.42,1.32q-.01.06-.03.12c-.05.22-.08.36-.09.51-.03.25,0,.46.07.63.09.2.28.34.5.37.37.05.72.05,1.02-.02.17-.04.34-.09.51-.15.48-.18.94-.46,1.39-.83.39-.33.76-.72,1.15-1.22t.07-.09c.12-.15.17-.25.2-.35.02-.11-.07-.22-.15-.19-.04.02-.08.06-.14.13-.04.05-.07.08-.09.11-.09.1-.19.21-.29.32-.17.19-.35.37-.61.63-.13.13-.29.25-.47.33-.28.14-.54-.04-.51-.35.02-.21.07-.42.15-.63.16-.45.3-.82.59-1.62.13-.35.18-.5.25-.69.21-.56.37-1.01.52-1.44.19-.54.3-.94.35-1.35.04-.31-.05-.61-.25-.81-.22-.23-.53-.33-.92-.33-.43,0-.93.15-1.39.36h0Zm2.94-3.7c-.77-.3-1.7.22-1.85,1.03-.11.59.11,1.1.56,1.32.89.42,1.97-.26,1.97-1.25,0-.55-.24-.93-.68-1.1Z"/>
    </g>
  </g>
</svg>