<?xml version="1.0" encoding="UTF-8"?>
<svg id="Layer_2" data-name="Layer 2" xmlns="http://www.w3.org/2000/svg" viewBox="0 0 75 30">
  <defs>
    <style>
      .cls-1 {
        fill: #4b4b4b;
      }

      .cls-2 {
        fill: #e6e6e6;
      }
    </style>
  </defs>
  <g id="Background">
    <rect class="cls-1" width="75" height="30"/>
    <g>
      <path class="cls-2" d="m31.32,17.82c-.17.06-.32.11-.45.14s-.24.05-.33.05c-.29,0-.48-.07-.58-.2s-.14-.27-.14-.41c0-.07.01-.19.04-.36.03-.17.07-.37.11-.59.04-.22.09-.42.13-.62l.55-2.3c.03-.14.06-.27.08-.41.02-.13.02-.26.02-.38,0-.61-.18-1.05-.54-1.33-.36-.28-.8-.42-1.32-.42-.24,0-.49.03-.76.09s-.57.2-.91.42c-.3.2-.66.52-1.06.95-.04-.22-.1-.43-.18-.6-.13-.27-.32-.48-.59-.63s-.62-.22-1.07-.22c-.24,0-.49.03-.76.09s-.55.17-.86.35-.64.45-1,.82h-.08l.26-1.2-2.67.41v.49l.82.35c.09.04.16.08.2.14.04.06.05.14.03.24l-1.38,6.17h1.7c0-.22,0-.46,0-.72,0-.26,0-.5.02-.75l1.02-4.58c.26-.28.56-.47.9-.59.34-.11.66-.17.95-.17.45,0,.76.09.94.26.18.17.27.43.27.76,0,.14-.02.31-.05.49-.03.18-.07.37-.1.55l-1.05,4.74h1.7c0-.22,0-.46,0-.72,0-.26,0-.5.02-.75l1.01-4.55c.26-.28.55-.48.88-.6.36-.13.68-.19.96-.19.45,0,.77.09.95.28.18.19.27.44.27.78,0,.14-.01.3-.04.48s-.06.35-.1.53l-.64,2.72c-.05.21-.09.41-.12.59-.03.19-.04.34-.04.46,0,.14.04.3.12.47.08.17.21.31.38.43.18.12.4.18.68.18.16,0,.35-.01.58-.04.22-.03.46-.08.71-.15.25-.07.5-.18.74-.32v-.62h-.23Z"/>
      <path class="cls-2" d="m40.28,17.82c-.17.06-.32.11-.46.14s-.26.05-.34.05c-.29,0-.48-.07-.58-.2-.09-.14-.14-.27-.14-.41,0-.08.01-.2.04-.38s.06-.37.11-.59.08-.41.12-.58l.43-1.88c.04-.15.07-.35.1-.58s.04-.44.04-.6c0-.34-.07-.63-.22-.86-.15-.23-.34-.42-.59-.55-.24-.14-.51-.24-.81-.29-.3-.06-.6-.09-.9-.09-.52,0-.97.04-1.36.12s-.75.18-1.11.29l-.63.19-.06,1.36h.3c.19-.11.43-.25.71-.42.29-.17.6-.33.92-.47s.65-.21.96-.21c.37,0,.68.08.95.25s.4.44.4.82c0,.07,0,.15,0,.25,0,.1-.01.2-.02.3s-.02.19-.04.26l-.11.51c-.1,0-.2-.01-.3-.02-.14-.01-.28-.03-.41-.04s-.25-.02-.36-.03c-.11,0-.22-.01-.31-.01-.39,0-.81.05-1.27.14s-.89.25-1.3.48-.75.52-1.01.9c-.26.37-.39.84-.39,1.39,0,.33.07.65.21.94.14.3.36.54.64.72.29.18.65.27,1.09.27.25,0,.52-.03.81-.09.29-.06.59-.18.91-.37.32-.19.64-.46.97-.83h.08c0,.18.04.37.11.57s.17.36.33.5c.16.14.39.2.69.2.26,0,.58-.03.94-.1s.72-.2,1.08-.41v-.62h-.24Zm-2.92-.68c-.28.28-.6.49-.97.62-.37.13-.72.2-1.02.2s-.58-.09-.83-.27c-.25-.18-.37-.49-.37-.92,0-.56.17-.97.5-1.23.33-.26.79-.43,1.37-.51.54-.07,1.15-.11,1.81-.11l-.49,2.22Z"/>
      <path class="cls-2" d="m44.21,19.01c-.46,0-.9-.06-1.33-.17-.43-.12-.85-.25-1.26-.39l.1-1.82h.83l.18.7c.03.1.07.18.13.25.06.06.12.11.18.15.18.1.4.2.67.3.27.09.53.14.8.14.32,0,.63-.04.94-.12.3-.08.55-.22.75-.42s.29-.47.29-.83c0-.25-.09-.45-.28-.6-.19-.15-.45-.29-.79-.41-.25-.08-.49-.17-.73-.25-.24-.08-.47-.17-.71-.25-.47-.17-.84-.41-1.09-.74-.25-.32-.38-.68-.38-1.07s.1-.72.29-1.03c.19-.31.45-.57.79-.79.33-.22.71-.38,1.14-.5s.87-.17,1.34-.17c.43,0,.81.04,1.14.12.33.08.68.17,1.03.27l-.09,1.84h-.83l-.18-.73c-.02-.09-.07-.18-.16-.25-.08-.07-.19-.14-.31-.2-.14-.07-.3-.12-.48-.15-.18-.03-.35-.05-.53-.05-.52,0-.94.1-1.27.29-.33.2-.49.52-.49.96,0,.2.06.38.18.52.12.14.29.27.51.38.21.1.46.21.74.31.28.1.6.22.95.36.54.2.94.43,1.21.69.27.26.41.59.41.99,0,.44-.11.83-.33,1.16-.22.33-.51.61-.87.84-.36.23-.76.39-1.19.51s-.87.17-1.3.17Z"/>
      <path class="cls-2" d="m52.08,19.01c-.46,0-.9-.06-1.33-.17-.43-.12-.85-.25-1.26-.39l.1-1.82h.83l.18.7c.03.1.07.18.13.25.06.06.12.11.18.15.18.1.4.2.67.3.27.09.53.14.8.14.32,0,.63-.04.94-.12.3-.08.55-.22.75-.42s.29-.47.29-.83c0-.25-.09-.45-.28-.6-.19-.15-.45-.29-.79-.41-.25-.08-.49-.17-.73-.25-.24-.08-.47-.17-.71-.25-.47-.17-.84-.41-1.09-.74-.25-.32-.38-.68-.38-1.07s.1-.72.29-1.03c.19-.31.45-.57.79-.79.33-.22.71-.38,1.14-.5s.87-.17,1.34-.17c.43,0,.81.04,1.14.12.33.08.68.17,1.03.27l-.09,1.84h-.83l-.18-.73c-.02-.09-.07-.18-.16-.25-.08-.07-.19-.14-.31-.2-.14-.07-.3-.12-.48-.15-.18-.03-.35-.05-.53-.05-.52,0-.94.1-1.27.29-.33.2-.49.52-.49.96,0,.2.06.38.18.52.12.14.29.27.51.38.21.1.46.21.74.31.28.1.6.22.95.36.54.2.94.43,1.21.69.27.26.41.59.41.99,0,.44-.11.83-.33,1.16-.22.33-.51.61-.87.84-.36.23-.76.39-1.19.51s-.87.17-1.3.17Z"/>
    </g>
  </g>
</svg>