<?xml version="1.0" encoding="UTF-8"?>
<svg id="Layer_2" data-name="Layer 2" xmlns="http://www.w3.org/2000/svg" viewBox="0 0 75 30">
  <defs>
    <style>
      .cls-1 {
        fill: #4b4b4b;
      }

      .cls-2 {
        fill: #e6e6e6;
      }
    </style>
  </defs>
  <g id="Background">
    <rect class="cls-1" width="75" height="30"/>
    <path class="cls-2" d="m40.13,11.13c-.19-.04-.4-.06-.63-.06-.24,0-.48.06-.73.17s-.52.3-.81.55-.62.58-.98.99h-.07l.36-1.66-2.75.39v.5l.81.35c.09.04.16.09.2.15.04.06.06.15.05.28,0,.08-.02.18-.03.29-.02.11-.04.23-.06.33l-1.17,5.5h1.69v-.48c0-.17,0-.33,0-.51,0-.17,0-.33,0-.48l.84-3.98c.18-.18.38-.36.58-.54.2-.18.42-.33.65-.45.23-.12.48-.18.74-.18.11,0,.24.02.4.07.16.05.25.13.29.24l.17.54h.89l.08-1.76c-.17-.14-.35-.23-.54-.27Z"/>
  </g>
</svg>