<?xml version="1.0" encoding="UTF-8"?>
<svg id="Layer_2" data-name="Layer 2" xmlns="http://www.w3.org/2000/svg" xmlns:xlink="http://www.w3.org/1999/xlink" viewBox="0 0 350 250">
  <defs>
    <style>
      .cls-1 {
        fill: none;
        stroke: #777;
        stroke-miterlimit: 10;
      }

      .cls-2 {
        letter-spacing: .04em;
      }

      .cls-2, .cls-3, .cls-4 {
        font-size: 20px;
      }

      .cls-5 {
        fill: #777;
      }

      .cls-3 {
        letter-spacing: .02em;
      }

      .cls-3, .cls-4, .cls-6 {
        fill: #e6e6e6;
        font-family: SitkaTextItalic, Sitka;
        font-variation-settings: 'opsz' 11, 'wght' 400;
      }

      .cls-4, .cls-7 {
        letter-spacing: .02em;
      }

      .cls-8 {
        fill: #424242;
      }

      .cls-9 {
        fill: url(#linear-gradient);
      }

      .cls-7 {
        font-size: 14px;
      }
    </style>
    <linearGradient id="linear-gradient" x1="121" y1="493.79" x2="121" y2="493.79" gradientTransform="translate(0 704.49) scale(1 -1)" gradientUnits="userSpaceOnUse">
      <stop offset="0" stop-color="#fff"/>
      <stop offset="1" stop-color="#000"/>
    </linearGradient>
  </defs>
  <g id="Universal_Beam" data-name="Universal Beam">
    <rect class="cls-8" width="350" height="250"/>
    <path class="cls-5" d="m219.35,56.5v-7.7h-88.7v7.7h34.5c4.2,0,7.6,3.4,7.6,7.6v121.8c0,4.2-3.4,7.6-7.6,7.6h-34.5v7.7h88.7v-7.7h-34.5c-4.2,0-7.6-3.4-7.6-7.6v-121.8c0-4.2,3.4-7.6,7.6-7.6h34.5Z"/>
    <g>
      <line class="cls-1" x1="131.15" y1="25.15" x2="131.15" y2="45.15"/>
      <line class="cls-1" x1="218.85" y1="45.15" x2="218.85" y2="25.15"/>
      <g>
        <line class="cls-1" x1="213.83" y1="30.15" x2="136.17" y2="30.15"/>
        <polygon class="cls-5" points="212.81 26.66 218.85 30.15 212.81 33.64 212.81 26.66"/>
        <polygon class="cls-5" points="137.19 26.66 131.15 30.15 137.19 33.64 137.19 26.66"/>
      </g>
    </g>
    <g>
      <line class="cls-1" x1="96" y1="200.7" x2="126" y2="200.7"/>
      <line class="cls-1" x1="126" y1="49.3" x2="96" y2="49.3"/>
      <g>
        <line class="cls-1" x1="101" y1="195.68" x2="101" y2="54.32"/>
        <polygon class="cls-5" points="104.49 194.66 101 200.7 97.51 194.66 104.49 194.66"/>
        <polygon class="cls-5" points="104.49 55.34 101 49.3 97.51 55.34 104.49 55.34"/>
      </g>
    </g>
    <g>
      <line class="cls-1" x1="116" y1="194" x2="126" y2="194"/>
      <g>
        <line class="cls-1" x1="121" y1="188.98" x2="121" y2="174"/>
        <polygon class="cls-5" points="124.49 187.96 121 194 117.51 187.96 124.49 187.96"/>
      </g>
      <g>
        <line class="cls-9" x1="121" y1="200.7" x2="121" y2="220.7"/>
        <g>
          <line class="cls-1" x1="121" y1="205.72" x2="121" y2="220.7"/>
          <polygon class="cls-5" points="117.51 206.74 121 200.7 124.49 206.74 117.51 206.74"/>
        </g>
      </g>
    </g>
    <g>
      <line class="cls-1" x1="182.27" y1="125" x2="197.25" y2="125"/>
      <polygon class="cls-5" points="183.29 128.49 177.25 125 183.29 121.51 183.29 128.49"/>
    </g>
    <g>
      <line class="cls-1" x1="167.73" y1="125" x2="152.75" y2="125"/>
      <polygon class="cls-5" points="166.71 121.51 172.75 125 166.71 128.49 166.71 121.51"/>
    </g>
    <line class="cls-1" x1="229.5" y1="64.25" x2="182.25" y2="64.25"/>
    <line class="cls-1" x1="182.25" y1="185.05" x2="229.5" y2="185.05"/>
    <g>
      <line class="cls-1" x1="224.35" y1="180.03" x2="224.35" y2="69.27"/>
      <polygon class="cls-5" points="227.84 179.01 224.35 185.05 220.86 179.01 227.84 179.01"/>
      <polygon class="cls-5" points="227.84 70.29 224.35 64.25 220.86 70.29 227.84 70.29"/>
    </g>
    <text class="cls-4" transform="translate(78.5 133.32)"><tspan x="0" y="0">h</tspan></text>
    <text class="cls-3" transform="translate(142.5 85.32)"><tspan x="0" y="0">r</tspan></text>
    <text class="cls-6" transform="translate(127.5 183.32)"><tspan class="cls-2" x="0" y="0">t</tspan><tspan class="cls-7" x="8.5" y="2">f</tspan></text>
    <text class="cls-6" transform="translate(126.5 131.32)"><tspan class="cls-2" x="0" y="0">t</tspan><tspan class="cls-7" x="8.5" y="2">w</tspan></text>
    <text class="cls-3" transform="translate(168.98 22.87)"><tspan x="0" y="0">b</tspan></text>
    <text class="cls-4" transform="translate(231.5 130.98)"><tspan x="0" y="0">d</tspan></text>
    <g>
      <line class="cls-1" x1="166.97" y1="62.28" x2="156.38" y2="72.87"/>
      <polygon class="cls-5" points="163.78 60.53 170.52 58.73 168.72 65.47 163.78 60.53"/>
    </g>
  </g>
</svg>