<?xml version="1.0" encoding="UTF-8"?>
<svg id="Layer_2" data-name="Layer 2" xmlns="http://www.w3.org/2000/svg" viewBox="0 0 75 30">
  <defs>
    <style>
      .cls-1 {
        fill: #4b4b4b;
      }

      .cls-2 {
        fill: #e6e6e6;
      }
    </style>
  </defs>
  <g id="Background">
    <rect class="cls-1" width="75" height="30"/>
    <g>
      <path class="cls-2" d="m32.23,7.78l-1.59.28-.35,1.31c-.11.4-.25.69-.43.88-.18.19-.41.32-.69.4-.28.07-.63.13-1.05.18v.79h1.53l-1.16,5.45c-.04.16-.08.35-.13.58-.05.23-.09.45-.13.66-.04.21-.06.37-.06.49,0,.47.21.84.62,1.12.41.28.91.41,1.51.41.34,0,.72-.06,1.14-.19.42-.13.8-.27,1.14-.42s.57-.26.68-.33v-.7h-.29c-.09.04-.23.09-.41.14s-.38.1-.57.14c-.2.04-.36.06-.49.06-.17,0-.37-.03-.6-.1-.23-.06-.43-.17-.59-.32s-.25-.33-.25-.56c0-.06.02-.19.05-.37.04-.18.08-.37.12-.57.04-.2.08-.37.1-.5l1.07-4.99h3.25l.04-1.01h-3.08l.61-2.83Z"/>
      <path class="cls-2" d="m45.01,15.46v.21c0,.18-.02.47-.07.87-.05.4-.2.84-.46,1.33l-1.55,2.88h-.09l-.06-1.1-.69-4.18h-.77l-.85,1.36-1.98,3.9h-.09l-.03-1.04-.58-4.34-2.05.35v.43l.78.32c.07.03.13.07.18.11.04.04.07.12.08.22l.76,5.45h.82l.9-1.37,1.93-3.79h.07l.05.91.71,4.26h.79l.91-1.37,1.91-3.41c.14-.21.28-.41.42-.61.14-.2.28-.4.42-.59.14-.19.28-.38.42-.57v-.22h-1.87Z"/>
    </g>
  </g>
</svg>