<?xml version="1.0" encoding="UTF-8"?>
<svg id="Layer_2" data-name="Layer 2" xmlns="http://www.w3.org/2000/svg" viewBox="0 0 75 30">
  <defs>
    <style>
      .cls-1 {
        fill: #4b4b4b;
      }

      .cls-2 {
        fill: #e6e6e6;
      }

      .cls-3 {
        fill: none;
      }
    </style>
  </defs>
  <g id="Background">
    <rect class="cls-1" width="75" height="30"/>
    <g>
      <path class="cls-3" d="m39.15,13.88c-.26-.19-.6-.29-1.02-.29-.25,0-.53.07-.84.22-.28.13-.54.35-.8.64l-1.07,4.84c.14.08.32.15.54.2.22.05.44.08.66.1.22.02.4.03.53.03.46,0,.87-.11,1.21-.32s.63-.5.86-.87c.23-.36.4-.77.52-1.22.11-.45.17-.91.17-1.39,0-.43-.06-.81-.19-1.14-.12-.34-.31-.6-.58-.79Z"/>
      <path class="cls-2" d="m41.16,14.02c-.18-.45-.46-.8-.82-1.05s-.8-.38-1.32-.38c-.18,0-.4.03-.65.08-.25.05-.54.18-.86.38-.29.18-.6.49-.94.87l.17-.66.83-3.83-2.74.13v.5l.83.41c.07.03.13.08.17.15.04.07.06.14.04.22l-1.76,8.12c-.09.27-.18.55-.27.81-.09.27-.19.53-.28.78h1.51l.38-.73c.15.19.37.37.68.52.31.15.67.23,1.09.23.62,0,1.19-.14,1.71-.42s.96-.66,1.34-1.13c.37-.48.66-1.02.87-1.62.2-.6.31-1.23.31-1.87,0-.56-.09-1.07-.28-1.51Zm-1.42,3.19c-.11.45-.29.86-.52,1.22-.23.36-.52.65-.86.87s-.75.32-1.21.32c-.13,0-.31,0-.53-.03-.22-.02-.44-.05-.66-.1-.22-.05-.4-.11-.54-.2l1.07-4.84c.25-.29.52-.51.8-.64.31-.14.59-.22.84-.22.42,0,.76.1,1.02.29.26.19.45.46.58.79.12.34.19.72.19,1.14,0,.47-.06.94-.17,1.39Z"/>
    </g>
  </g>
</svg>